<svg xmlns="http://www.w3.org/2000/svg" viewBox="0 0 500.107 220"><g id="Layer_2" data-name="Layer 2"><g id="Layer_1-2" data-name="Layer 1"><path d="M486.925,143.172A45,45,0,1,0,500.107,175,44.711,44.711,0,0,0,486.925,143.172Zm-40.358-6.981a57.374,57.374,0,0,0-4.774,5.255,54.7,54.7,0,0,0-7.012,11.3H422.2A39.837,39.837,0,0,1,446.567,136.191ZM419.185,158.02h13.5a52.945,52.945,0,0,0-2.665,14.338H415.461A39.441,39.441,0,0,1,419.185,158.02Zm-3.724,19.612h14.564a52.937,52.937,0,0,0,2.665,14.338h-13.5A39.436,39.436,0,0,1,415.461,177.632Zm6.74,19.612h12.58a54.712,54.712,0,0,0,7.012,11.3,57.506,57.506,0,0,0,4.774,5.255A39.839,39.839,0,0,1,422.2,197.244Zm30.264,14.811a51.927,51.927,0,0,1-6.557-6.808,50.29,50.29,0,0,1-5.266-8h11.823Zm0-20.085h-14.2a47.2,47.2,0,0,1-2.957-14.338h17.159Zm0-19.612H435.306a47.214,47.214,0,0,1,2.959-14.338h14.2Zm0-19.612H440.642a50.24,50.24,0,0,1,5.141-7.845,51.784,51.784,0,0,1,6.682-6.958Zm42.278,19.612H480.178a52.905,52.905,0,0,0-2.664-14.338h13.5A39.441,39.441,0,0,1,494.743,172.358ZM488,152.746h-12.58a54.748,54.748,0,0,0-7.012-11.3,57.519,57.519,0,0,0-4.774-5.255A39.837,39.837,0,0,1,488,152.746Zm-30.264-14.81a51.8,51.8,0,0,1,6.556,6.808,50.175,50.175,0,0,1,5.267,8H457.739Zm0,20.084h14.2a47.177,47.177,0,0,1,2.958,14.338H457.739Zm0,19.612H474.9a47.209,47.209,0,0,1-2.96,14.338h-14.2Zm0,34.415v-14.8h11.823a50.193,50.193,0,0,1-5.141,7.845A51.784,51.784,0,0,1,457.739,212.047Zm5.9,1.753a57.652,57.652,0,0,0,4.774-5.255,54.712,54.712,0,0,0,7.012-11.3H488A39.839,39.839,0,0,1,463.637,213.8Zm27.382-21.83h-13.5a52.9,52.9,0,0,0,2.664-14.338h14.565A39.436,39.436,0,0,1,491.019,191.97Z"/><path d="M338.088,169.349c-1.369,0-2.738.492-2.738,1.65v11.937l-5.688-10.848c-1.334-2.563-2.071-2.739-4.037-2.739-1.37,0-2.739.527-2.739,1.685v22.294c0,1.124,1.369,1.685,2.739,1.685s2.738-.561,2.738-1.685V181.391l6.671,12.148a3.062,3.062,0,0,0,3.054,1.474c1.369,0,2.738-.561,2.738-1.685V171C340.826,169.841,339.457,169.349,338.088,169.349Z"/><path d="M318.849,174.124c1.054,0,1.651-1.124,1.651-2.423,0-1.123-.492-2.352-1.651-2.352h-12.5c-1.194,0-2.388.562-2.388,1.685v22.294c0,1.124,1.194,1.685,2.388,1.685h12.5c1.159,0,1.651-1.228,1.651-2.352,0-1.3-.6-2.422-1.651-2.422H309.44V184.27h5.267c1.158,0,1.65-1.123,1.65-2.071,0-1.124-.6-2.142-1.65-2.142H309.44v-5.933Z"/><path d="M361.447,182.224,374.091,155.6a3.515,3.515,0,0,0-3.176-5.025H287.938a3.516,3.516,0,0,0-3.516,3.516v56.256a3.516,3.516,0,0,0,3.516,3.516h82.977a3.516,3.516,0,0,0,3.176-5.025Zm-69.993,24.612V157.612h73.9l-10.975,23.1a3.521,3.521,0,0,0,0,3.018l10.975,23.1Z"/><path d="M82.626,157.286H57.9c.078-.867.121-1.745.121-2.633a29.018,29.018,0,0,0-43.507-25.135,1.758,1.758,0,1,0,1.76,3.044A25.5,25.5,0,1,1,29.01,180.148a25.211,25.211,0,0,1-15.986-5.637,1.761,1.761,0,0,0-1.62-.311l-4.667,1.22L8.565,171.4a1.757,1.757,0,0,0-.178-1.763,25.507,25.507,0,0,1-1.449-27.754A1.758,1.758,0,1,0,3.9,140.122a29.03,29.03,0,0,0,1.053,30.739l-2.943,6.467a1.758,1.758,0,0,0,2.044,2.429l7.477-1.954a29,29,0,0,0,21.523,5.578v15.394a7.392,7.392,0,0,0,7.383,7.384H65.3l11.118,9.095a1.758,1.758,0,0,0,2.871-1.361v-7.734h3.34a7.392,7.392,0,0,0,7.384-7.384V164.67A7.392,7.392,0,0,0,82.626,157.286Zm3.868,41.489a3.873,3.873,0,0,1-3.868,3.868h-5.1A1.758,1.758,0,0,0,75.77,204.4v5.783l-8.683-7.1c-.479-.436-.9-.436-1.839-.436H40.433a3.873,3.873,0,0,1-3.867-3.868V182.663a29.108,29.108,0,0,0,20.8-21.861H82.626a3.872,3.872,0,0,1,3.868,3.868ZM70.278,186.927a1.757,1.757,0,0,0-.748-3.347h-.72l-5.67-12.921a1.758,1.758,0,0,0-3.22,0L54.251,183.58h-.72a1.757,1.757,0,0,0-.748,3.347l-2.112,4.813a1.758,1.758,0,1,0,3.219,1.412l2.658-6.056h9.965l2.657,6.056a1.758,1.758,0,1,0,3.22-1.412ZM58.09,183.58l3.44-7.84,3.44,7.84ZM9.74,137.139a1.758,1.758,0,1,0-1.243-.515A1.774,1.774,0,0,0,9.74,137.139Zm8.777,28.213a1.758,1.758,0,1,0,1.69,3.083,20.128,20.128,0,0,0,8.7-9.438,20.133,20.133,0,0,0,8.7,9.438,1.758,1.758,0,0,0,1.691-3.083,16.626,16.626,0,0,1-8.446-12.1H38.66a1.758,1.758,0,0,0,0-3.516H30.666v-7.326a1.758,1.758,0,1,0-3.516,0v7.326H20.8a1.758,1.758,0,0,0,0,3.516h6.163A16.626,16.626,0,0,1,18.517,165.352Z"/><path d="M208.078,127.357a10.56,10.56,0,0,0-10.548,10.548v5.274a10.548,10.548,0,0,0,21.1,0v-5.274A10.559,10.559,0,0,0,208.078,127.357Zm5.273,15.822a5.274,5.274,0,0,1-10.547,0v-5.274a5.274,5.274,0,1,1,10.547,0Zm26.725-13.5-4.735-2.323-5.175,10.552h-.993V127.357H223.9v26.369h5.274V143.179h.968l5.161,10.9,4.766-2.258-5.331-11.254Zm-34.635,45.5H192.256V156.715a7.919,7.919,0,0,0-7.91-7.911h-7.911v26.369H150.066v42.19h50.1a7.929,7.929,0,0,0,7.757-6.353l5.274-26.369a7.921,7.921,0,0,0-7.757-9.468Zm-39.554,36.916H155.34V180.447h10.547Zm42.139-28.483-5.273,26.369a2.642,2.642,0,0,1-2.586,2.114H171.161V180.447h10.548V154.078h2.637a2.64,2.64,0,0,1,2.637,2.637v23.732h18.458A2.64,2.64,0,0,1,208.026,183.606Z"/><path d="M410.1,32.259c0,14.241,4.762,21.119,8.239,26.14,2.055,2.968,3.539,5.112,3.539,7.878v21.1a2.637,2.637,0,0,0,2.637,2.637h32.7a2.637,2.637,0,0,0,2.637-2.637V82.1h12.13a2.637,2.637,0,0,0,2.637-2.637V71.551a2.639,2.639,0,0,0-1.167-2.189c-.979-.671-2.349-2.122-2.349-3.085,0-1.052,1.555-2.552,2.349-3.085A2.637,2.637,0,0,0,474.616,61V55.729h4.4a2.638,2.638,0,0,0,2.443-3.63L474.616,35.26v-3a32.26,32.26,0,0,0-64.519,0Zm5.274,0a26.986,26.986,0,0,1,53.971,0v3.517a2.636,2.636,0,0,0,.194.992l5.558,13.687h-3.115a2.637,2.637,0,0,0-2.637,2.637v6.633c-1.4,1.228-3.516,3.575-3.516,6.552s2.115,5.324,3.516,6.552v4h-12.13a2.637,2.637,0,0,0-2.637,2.637v5.273H427.149V66.277c0-4.414-2.175-7.555-4.477-10.88C419.419,50.7,415.371,44.853,415.371,32.259Zm79.334,22.466a2.638,2.638,0,0,1,3.431,1.463,27.334,27.334,0,0,1,0,20.383,2.637,2.637,0,0,1-4.894-1.967,22.053,22.053,0,0,0,0-16.449A2.637,2.637,0,0,1,494.705,54.725Zm-9.786,3.934a2.637,2.637,0,0,1,3.43,1.463,16.785,16.785,0,0,1,0,12.515,2.637,2.637,0,0,1-4.894-1.967,11.5,11.5,0,0,0,0-8.581A2.637,2.637,0,0,1,484.919,58.659Z"/><path d="M312.991,82.8a1.055,1.055,0,0,0,0,2.109h.642a1.055,1.055,0,1,0,0-2.109Z"/><path d="M317.038,84.911h12.631a1.055,1.055,0,0,0,0-2.109H317.038a1.055,1.055,0,0,0,0,2.109Z"/><path d="M327.659,8.74V6.329h2.5a.967.967,0,0,0,1.017-.913c0-.024,0-.048,0-.072V2.285a1.023,1.023,0,0,0-.992-1.054h-5.867a37.767,37.767,0,0,0-.7,75.527v2.7h-9.649a6.633,6.633,0,0,0-6.7,6.6v1.666a1.071,1.071,0,0,0,1.074,1.055h36.393a1.037,1.037,0,0,0,1.033-1.041v-1.68a6.6,6.6,0,0,0-6.6-6.6h-9.926V76.825h.916a1.075,1.075,0,0,0,1.018-1.113V72.653a1.066,1.066,0,0,0-1.018-1.1h-2.5V69.257a30.277,30.277,0,0,0,0-60.517ZM346.7,19.352a27.743,27.743,0,0,1-5.322,4.313,28.832,28.832,0,0,0-9.445-12.314A28.135,28.135,0,0,1,346.7,19.352ZM327.659,37.973V30a30.284,30.284,0,0,0,12.64-3.264,38.442,38.442,0,0,1,1.847,11.241Zm14.487,2.109A38.277,38.277,0,0,1,340.3,51.294,30.317,30.317,0,0,0,327.659,48V40.082ZM339.6,24.722a28.032,28.032,0,0,1-11.938,3.163V11.115A26.549,26.549,0,0,1,339.6,24.722Zm-.49,56.849a4.486,4.486,0,0,1,4.549,4.423c0,.021,0,.042,0,.064v.611H309.376v-.611a4.521,4.521,0,0,1,4.59-4.487Zm-13.382-2.109V76.825h1.406v2.637ZM324.316,4.219a34.721,34.721,0,0,0,0,69.441h4.749v1.055h-4.749a35.688,35.688,0,0,1,0-71.375h4.749v.879ZM310.908,25.746a40.5,40.5,0,0,0-2.09,12.227H298.389a27.878,27.878,0,0,1,6.5-16.952A29.713,29.713,0,0,0,310.908,25.746ZM306.3,19.427a28.149,28.149,0,0,1,14.841-8.076,28.85,28.85,0,0,0-9.47,12.376A27.623,27.623,0,0,1,306.3,19.427Zm2.521,20.655a40.374,40.374,0,0,0,2.09,12.2,29.741,29.741,0,0,0-6.023,4.725,28.233,28.233,0,0,1-6.5-16.93Zm2.85,14.189a28.862,28.862,0,0,0,9.47,12.376,28.149,28.149,0,0,1-14.84-8.076A27.55,27.55,0,0,1,311.668,54.271Zm1.924-1.044a28.454,28.454,0,0,1,11.957-3.115v16.77a25.87,25.87,0,0,1-11.957-13.655Zm-.767-1.981a38.174,38.174,0,0,1-1.9-11.164h14.622V48A30.338,30.338,0,0,0,312.825,51.246Zm-1.9-13.273a38.372,38.372,0,0,1,1.9-11.193A30.322,30.322,0,0,0,325.549,30v7.976Zm2.665-13.2a25.877,25.877,0,0,1,11.957-13.655V27.886a28.447,28.447,0,0,1-11.956-3.116ZM296.324,39a30.217,30.217,0,0,0,29.225,30.259v2.294h-1.233a32.611,32.611,0,0,1,0-65.222h1.233V8.74A30.218,30.218,0,0,0,296.325,39Zm31.335,11.114A28.046,28.046,0,0,1,339.6,53.275a26.545,26.545,0,0,1-11.937,13.607Zm4.276,16.535a28.838,28.838,0,0,0,9.445-12.314,27.712,27.712,0,0,1,5.322,4.313A28.142,28.142,0,0,1,331.935,66.647ZM348.12,57.1a29.843,29.843,0,0,0-5.977-4.759,40.392,40.392,0,0,0,2.111-12.259h10.429A27.921,27.921,0,0,1,348.12,57.1Zm6.564-19.127h-10.43a40.6,40.6,0,0,0-2.111-12.287,29.832,29.832,0,0,0,5.977-4.745A27.963,27.963,0,0,1,354.684,37.973Z"/><path d="M232.022,56.324a1.318,1.318,0,0,0,1.318-1.318V30.9a3.339,3.339,0,0,0-3.335-3.335h-3.953V23.375a2.52,2.52,0,0,0-2.517-2.517h-17V11.5a3.523,3.523,0,0,0-3.519-3.518h-7.152a1.319,1.319,0,1,0,0,2.637h7.152a.883.883,0,0,1,.882.881V31.223a.883.883,0,0,1-.882.881h-1.12a2.153,2.153,0,0,0-1.86,1.074l-1.472,2.549-1.471-2.549a2.152,2.152,0,0,0-1.86-1.074H161.266a.883.883,0,0,1-.882-.881V11.5a.883.883,0,0,1,.882-.881h29.323a1.319,1.319,0,1,0,0-2.637H161.266a3.523,3.523,0,0,0-3.519,3.518v9.361h-4.61a2.52,2.52,0,0,0-2.517,2.517V27.56h-3.954a3.339,3.339,0,0,0-3.335,3.335V70.122a8.275,8.275,0,0,0,8.266,8.266h29.128a.657.657,0,0,1,.633.471c.036.121.057.148.378.9a3.277,3.277,0,0,0,3.133,2.269H191.8a3.278,3.278,0,0,0,3.133-2.269c.33-.775.342-.783.378-.9a.657.657,0,0,1,.633-.471h29.128a8.275,8.275,0,0,0,8.266-8.266V60.277a1.319,1.319,0,0,0-2.637,0v9.845a5.635,5.635,0,0,1-5.629,5.629H195.946a3.277,3.277,0,0,0-3.133,2.269l-.327.763c-.049.115-.155.611-.684.611h-6.933a.657.657,0,0,1-.633-.471c-.035-.12-.046-.124-.378-.9a3.276,3.276,0,0,0-3.133-2.269H151.6a5.635,5.635,0,0,1-5.629-5.629V30.9a.7.7,0,0,1,.7-.7h3.954V68.24a2.52,2.52,0,0,0,2.517,2.517h6.855a1.319,1.319,0,1,0,0-2.637h-6.735V23.5h4.49v7.728a3.523,3.523,0,0,0,3.519,3.518h25.751V64.916a3.207,3.207,0,0,1-3.2,3.2H165.264a1.319,1.319,0,1,0,0,2.637h18.55a5.834,5.834,0,0,0,4.522-2.149,5.832,5.832,0,0,0,4.522,2.149h30.677a2.52,2.52,0,0,0,2.517-2.517V30.2h3.953a.7.7,0,0,1,.7.7V55.006a1.317,1.317,0,0,0,1.318,1.318Zm-8.607,11.8H192.858a3.207,3.207,0,0,1-3.2-3.2V34.741h5.293l1.755,3.038a2.147,2.147,0,0,0,3.719,0l1.754-3.039h.838a3.5,3.5,0,0,0,2.577-1.131h11.089a1.319,1.319,0,0,0,0-2.637H206.531V23.5h16.883V68.12Z"/><path d="M216.679,39.984h-20.29a1.319,1.319,0,0,0,0,2.637h20.29a1.319,1.319,0,1,0,0-2.637Z"/><path d="M216.679,48.994h-20.29a1.319,1.319,0,0,0,0,2.637h20.29a1.319,1.319,0,1,0,0-2.637Z"/><path d="M216.679,58.005h-20.29a1.319,1.319,0,0,0,0,2.637h20.29a1.319,1.319,0,1,0,0-2.637Z"/><path d="M159.992,42.621h20.29a1.319,1.319,0,0,0,0-2.637h-20.29a1.319,1.319,0,0,0,0,2.637Z"/><path d="M159.992,51.631h20.29a1.319,1.319,0,0,0,0-2.637h-20.29a1.319,1.319,0,0,0,0,2.637Z"/><path d="M159.992,60.642h20.29a1.319,1.319,0,0,0,0-2.637h-20.29a1.319,1.319,0,0,0,0,2.637Z"/><path d="M187.017,74.382v.792a1.319,1.319,0,1,0,2.637,0v-.792a1.319,1.319,0,1,0-2.637,0Z"/><path d="M170.921,16.289a1.529,1.529,0,0,0-1.419-.95h0a1.531,1.531,0,0,0-1.419.954l-.011.03-3.585,9.411a1.318,1.318,0,1,0,2.464.939l.57-1.495h3.939l.563,1.491a1.318,1.318,0,0,0,2.467-.931l-3.552-9.412-.015-.037Zm-2.4,6.252.975-2.558.965,2.558Z"/><path d="M181.78,15.2h-2.773a1.319,1.319,0,0,0-1.319,1.318v9.547a1.32,1.32,0,0,0,1.319,1.318h.006s2.548-.011,3.251-.011a3.886,3.886,0,0,0,2.522-6.844A3.508,3.508,0,0,0,181.78,15.2Zm0,2.637a.878.878,0,1,1,0,1.756l-1.455,0V17.835Zm.484,6.9c-.359,0-1.2,0-1.939.006V22.232c.775,0,.807,0,1.939,0a1.251,1.251,0,1,1,0,2.5Z"/><path d="M195.554,17.835a3.432,3.432,0,0,1,1.931.589,1.318,1.318,0,1,0,1.476-2.185,6.092,6.092,0,1,0-3.407,11.142,5.162,5.162,0,0,0,3.5-1.282,5.088,5.088,0,0,0,.521-.537,1.319,1.319,0,1,0-2.021-1.694,2.626,2.626,0,0,1-.254.262,2.536,2.536,0,0,1-1.743.614,3.455,3.455,0,0,1,0-6.909Z"/><path d="M37.2,57.1H13.292v5.274H42.474A5.28,5.28,0,0,0,37.2,57.1Z"/><path d="M37.2,46.549H13.292v5.274H37.2a10.482,10.482,0,0,1,5.274,1.419V51.823A5.28,5.28,0,0,0,37.2,46.549Z"/><path d="M53.022,46.549a5.281,5.281,0,0,0-5.274,5.274v1.419a10.488,10.488,0,0,1,5.274-1.419H76.931V46.549Z"/><path d="M53.022,57.1a5.281,5.281,0,0,0-5.274,5.274H76.931V57.1Z"/><path d="M82.205,12.268V67.645H8.018V12.268H.107V90.01L14.56,75.556H90.116V12.268Z"/><path d="M47.748,42.694a10.488,10.488,0,0,1,5.274-1.419H76.931V0H53.022a5.28,5.28,0,0,0-5.274,5.274Z"/><path d="M13.292,41.275H37.2a10.482,10.482,0,0,1,5.274,1.419V5.274A5.279,5.279,0,0,0,37.2,0H13.292Z"/></g></g></svg>