<svg id="Layer_1" data-name="Layer 1" xmlns="http://www.w3.org/2000/svg" viewBox="0 0 500 220"><path d="M299.062,64.865l16.563-8.708,16.563,8.708-3.163-18.444,13.4-13.061-18.518-2.691-8.282-16.781-8.282,16.781L288.825,33.36l13.4,13.061Zm2.354-27.414,9.818-1.427,4.391-8.9,4.391,8.9,9.818,1.427-7.105,6.925,1.678,9.778-8.782-4.617-8.781,4.617,1.677-9.778Z"/><path d="M365.625,11.719H353.711V0H277.539V11.719H265.625v5.859h11.914V99.994l38.086-23.317,38.086,23.317V17.578h11.914ZM347.852,89.537l-32.227-19.73L283.4,89.537V5.859h64.454Z"/><path d="M226.473,27.761,209.806,11.1a2.079,2.079,0,0,0-1.473-.611H143.75a8.342,8.342,0,0,0-8.333,8.334v75a8.343,8.343,0,0,0,8.333,8.333h75a8.342,8.342,0,0,0,8.333-8.333V29.234A2.085,2.085,0,0,0,226.473,27.761ZM156.25,14.651h45.833v25a4.17,4.17,0,0,1-4.166,4.166h-37.5a4.17,4.17,0,0,1-4.167-4.166Zm54.167,83.333H152.083v-37.5h58.334Zm12.5-4.166a4.171,4.171,0,0,1-4.167,4.166h-4.167V58.4a2.082,2.082,0,0,0-2.083-2.084H150a2.082,2.082,0,0,0-2.083,2.084V97.984H143.75a4.171,4.171,0,0,1-4.167-4.166v-75a4.171,4.171,0,0,1,4.167-4.167h8.333v25a8.343,8.343,0,0,0,8.334,8.333h37.5a8.342,8.342,0,0,0,8.333-8.333v-25h1.221L222.917,30.1Z"/><path d="M187.5,39.651h8.333a2.083,2.083,0,0,0,2.084-2.084V20.9a2.083,2.083,0,0,0-2.084-2.084H187.5a2.082,2.082,0,0,0-2.083,2.084V37.567A2.082,2.082,0,0,0,187.5,39.651Zm2.083-16.667h4.167v12.5h-4.167Z"/><path d="M432.775,31.534h-18.5V60.228h18.5a2.053,2.053,0,0,0,2.051-2.051V33.585A2.053,2.053,0,0,0,432.775,31.534Zm-5.343,16.323a2.93,2.93,0,0,1-5.86,0V43.9a2.93,2.93,0,0,1,5.86,0Z"/><path d="M414.275,17.2v8.473h18.5a7.919,7.919,0,0,1,7.911,7.91V58.177a7.92,7.92,0,0,1-7.911,7.91h-18.5V74.56h71.45V17.2Zm42.3,44.457h-1.427a2.93,2.93,0,1,1,0-5.859h1.427a2.93,2.93,0,1,1,0,5.859Zm0-12.849h-1.427a2.93,2.93,0,1,1,0-5.86h1.427a2.93,2.93,0,1,1,0,5.86Zm0-12.848h-1.427a2.93,2.93,0,1,1,0-5.859h1.427a2.93,2.93,0,1,1,0,5.859Zm14.643,25.7h-1.428a2.93,2.93,0,1,1,0-5.859h1.428a2.93,2.93,0,1,1,0,5.859Zm0-12.849h-1.428a2.93,2.93,0,0,1,0-5.86h1.428a2.93,2.93,0,0,1,0,5.86Zm0-12.848h-1.428a2.93,2.93,0,1,1,0-5.859h1.428a2.93,2.93,0,1,1,0,5.859Z"/><path d="M400,8.786v74.19a5.859,5.859,0,0,0,5.859,5.859h7.028v7.256a.976.976,0,0,0,.976.976h12.858a.976.976,0,0,0,.976-.976V88.835H472.3v7.256a.976.976,0,0,0,.976.976h12.858a.976.976,0,0,0,.976-.976V88.835h7.028A5.859,5.859,0,0,0,500,82.976V8.786a5.859,5.859,0,0,0-5.859-5.859H405.859A5.859,5.859,0,0,0,400,8.786Zm91.584,66.75a4.889,4.889,0,0,1-4.883,4.883H413.3a4.889,4.889,0,0,1-4.883-4.883V16.226a4.889,4.889,0,0,1,4.883-4.883h73.4a4.889,4.889,0,0,1,4.883,4.883Z"/><g id="Outline"><path d="M46.875,78.117a6.228,6.228,0,0,1-4.419-1.828L24.778,58.612a6.25,6.25,0,0,1,8.839-8.839l7.008,7.008V9.37a6.25,6.25,0,0,1,12.5,0V56.781l7.008-7.008a6.25,6.25,0,0,1,8.839,8.839L51.3,76.289a6.232,6.232,0,0,1-4.42,1.828Zm-2.21-4.037a3.13,3.13,0,0,0,4.42,0L66.762,56.4A3.125,3.125,0,1,0,62.431,51.9c-.03.029-.059.058-.087.088l-9.676,9.675A1.562,1.562,0,0,1,50,60.553V9.37a3.125,3.125,0,0,0-6.25,0V60.553a1.562,1.562,0,0,1-2.667,1.105l-9.677-9.675A3.125,3.125,0,1,0,26.9,56.314c.029.03.058.059.088.087L44.665,74.079Z"/><path d="M84.375,96.87h-75A9.386,9.386,0,0,1,0,87.5V50a6.25,6.25,0,0,1,12.5,0V84.37H81.25V50a6.25,6.25,0,0,1,12.5,0V87.5A9.386,9.386,0,0,1,84.375,96.87ZM6.25,46.87A3.129,3.129,0,0,0,3.125,50V87.5a6.257,6.257,0,0,0,6.25,6.25h75a6.257,6.257,0,0,0,6.25-6.25V50a3.125,3.125,0,0,0-6.25,0V85.933A1.563,1.563,0,0,1,82.812,87.5H10.937a1.563,1.563,0,0,1-1.562-1.562V50A3.129,3.129,0,0,0,6.25,46.87Z"/></g><path d="M218.708,137.083v6.1h-67.66a7.083,7.083,0,0,0-7.084,7.083v50.772h-7.3a3.328,3.328,0,0,1-3.328-3.328V125.741a3.328,3.328,0,0,1,3.328-3.328h33.131a2.981,2.981,0,0,1,2.7,1.715L177,133.755H215.38A3.328,3.328,0,0,1,218.708,137.083Z"/><path d="M230.005,149.046H153.019a3.2,3.2,0,0,0-3.195,3.2v62.018a3.328,3.328,0,0,0,3.328,3.328h76.853a3.328,3.328,0,0,0,3.328-3.328V152.374a3.328,3.328,0,0,0-3.328-3.328Zm-54.461,28.269a2.93,2.93,0,0,1,4.143,0l8.963,8.963v-24.91a2.93,2.93,0,1,1,5.859,0v24.91l8.963-8.963a2.93,2.93,0,0,1,4.143,4.143s-13.53,13.484-13.983,13.98a2.908,2.908,0,0,1-4.125-.015l-13.963-13.965A2.93,2.93,0,0,1,175.544,177.315Zm39.891,27.95a2.929,2.929,0,0,1-2.93,2.929H170.652a2.931,2.931,0,0,1-2.93-2.929v-6.618a2.93,2.93,0,0,1,5.859,0v3.688h36v-3.688a2.93,2.93,0,0,1,5.859,0Z"/><path d="M100,141.832H54.913l-8.257-16.07H0v82.617H27.848l-1.618,5.859H73.77l-1.618-5.859H100Zm-35.352,5.859h12.11V167.28l-6.055-2.5-6.055,2.5Zm-21.569-16.07,5.247,10.211h-8.4l-5.246-10.211Zm-9.153,76.758,4.633-16.8H61.441l4.633,16.8Zm60.215-5.859h-23.6l-4.635-16.8H34.1l-4.635,16.8H5.859v-70.9H28.094l8.258,16.07H58.789V176.04L70.7,171.119l11.914,4.921V147.691H94.141Z"/><g id="_10-add" data-name=" 10-add"><path d="M347.917,219.219h-62.5a9.384,9.384,0,0,1-9.375-9.375V161.406a9.384,9.384,0,0,1,9.375-9.375h15.625a8.529,8.529,0,0,1,6.368,2.86l7.647,8.6a7.746,7.746,0,0,0,5.791,2.6h27.069a9.385,9.385,0,0,1,9.375,9.375v34.375A9.385,9.385,0,0,1,347.917,219.219Zm-62.5-64.063a6.25,6.25,0,0,0-6.25,6.25v48.438a6.25,6.25,0,0,0,6.25,6.25h62.5a6.25,6.25,0,0,0,6.25-6.25V175.469a6.25,6.25,0,0,0-6.25-6.25H320.848a10.882,10.882,0,0,1-8.125-3.65l-7.647-8.6a5.4,5.4,0,0,0-4.034-1.81Z"/><path d="M346.354,162.969a1.562,1.562,0,0,1-1.562-1.563,6.25,6.25,0,0,0-6.25-6.25H311.979a1.563,1.563,0,0,1,0-3.125h26.563a9.385,9.385,0,0,1,9.375,9.375A1.563,1.563,0,0,1,346.354,162.969Z"/><path d="M293.229,134.844a14.063,14.063,0,0,0-14.062-14.063,3.125,3.125,0,0,0,0,6.25,7.813,7.813,0,0,1,7.812,7.813h-4.687l7.812,10.937,7.813-10.937Z"/><path d="M340.1,134.844a14.063,14.063,0,0,1,14.063-14.063,3.125,3.125,0,0,1,0,6.25,7.813,7.813,0,0,0-7.813,7.813h4.688l-7.813,10.937-7.812-10.937Z"/><path d="M338.542,183.281h-43.75a1.563,1.563,0,1,1,0-3.125h43.75a1.563,1.563,0,0,1,0,3.125Z"/><path d="M338.542,194.219h-43.75a1.563,1.563,0,1,1,0-3.125h43.75a1.563,1.563,0,0,1,0,3.125Z"/><path d="M338.542,205.156h-43.75a1.563,1.563,0,1,1,0-3.125h43.75a1.563,1.563,0,0,1,0,3.125Z"/></g><path d="M477,120H460v20H430V120H400V220H500V143Zm13,90H410V130h10v20h50V130h3l17,17Z"/><path d="M445,183l-8-8-7,7,15,15,25-25-7-7Z"/><path d="M435,120h10v15H435Z"/></svg>