<svg xmlns="http://www.w3.org/2000/svg" viewBox="0 0 1138.322 482.186"><defs><style>.cls-1{fill:#ffcd00;}.cls-2{fill:#0079ff;}.cls-3{fill:#ff3d2e;}.cls-4{fill:#ff9600;}.cls-5{fill:#af52de;}.cls-6{fill:#30cb40;}</style></defs><g id="Layer_2" data-name="Layer 2"><g id="Layer_1-2" data-name="Layer 1"><g id="_000000ff" data-name="#000000ff"><path d="M267.37,0h9.93a61.193,61.193,0,0,1,40.97,21.76,59.693,59.693,0,0,1,13.58,44.35,60.4,60.4,0,0,1-21.67,40.21,59.8,59.8,0,0,1-75.28.79c-14.25-11.13-23.17-28.95-22.95-47.09a59.329,59.329,0,0,1,14.22-38.74A60.5,60.5,0,0,1,267.37,0m-1.94,10.55a49.73,49.73,0,0,0-40.61,33.48,50.319,50.319,0,0,0,6.86,45.28,49.867,49.867,0,1,0,67.88-70.88A50.373,50.373,0,0,0,265.43,10.55Z"/><path d="M468.55,0h9.91a61.009,61.009,0,0,1,43.25,24.19A59.62,59.62,0,0,1,532.66,71a60.671,60.671,0,0,1-30.75,41.91A57.277,57.277,0,0,1,474,120.05c-16.05.38-31.93-6.49-43.13-17.9a59.727,59.727,0,0,1-4.22-79.61A60.837,60.837,0,0,1,468.55,0m-2.94,10.75c-19,2.81-35.5,17.67-40.19,36.31-4.6,16.7.29,35.69,12.63,47.9a48.932,48.932,0,0,0,35.94,14.83,49.831,49.831,0,0,0,24.33-93.07A50.442,50.442,0,0,0,465.61,10.75Z"/><path d="M670.38,0h9.88a61.1,61.1,0,0,1,41.91,22.84,59.593,59.593,0,0,1-5.69,80.56c-10.79,10.35-25.53,16.69-40.55,16.65a58.977,58.977,0,0,1-42.8-17.24,59.6,59.6,0,0,1-5.22-79.94A60.577,60.577,0,0,1,670.38,0m-1.85,10.55c-18.79,2.22-35.4,16.22-40.94,34.28a50.229,50.229,0,0,0,5.14,41.48,49.842,49.842,0,0,0,91.83-32.45,49.886,49.886,0,0,0-56.03-43.31Z"/><path d="M871.53,0h9.94a61.143,61.143,0,0,1,43.75,24.81,59.646,59.646,0,0,1,9.97,48.69C929.57,98.82,906,118.97,880,119.99a59.4,59.4,0,0,1-45.62-17.42,59.6,59.6,0,0,1-3.83-81.08A60.862,60.862,0,0,1,871.53,0m-2.98,10.76c-19.91,2.96-36.89,19.22-40.71,38.97a49.965,49.965,0,0,0,12.71,44.72,50.113,50.113,0,0,0,71.08,1.1,49.949,49.949,0,0,0-10.28-78.84A50.382,50.382,0,0,0,868.55,10.76Z"/><path d="M1073.36,0h9.91a61.192,61.192,0,0,1,41.45,22.21,59.513,59.513,0,0,1-4.22,80.2,59.718,59.718,0,0,1-84.86-.09A60.179,60.179,0,0,1,1073.36,0m-1.93,10.56c-19.23,2.33-36.17,16.99-41.22,35.7a50.124,50.124,0,0,0,10.65,46.89,50.068,50.068,0,0,0,73,1.65,49.9,49.9,0,0,0-10.16-77.61A50.429,50.429,0,0,0,1071.43,10.56Z"/><path d="M12.09,12.98c.47-2.8,2.93-5.42,5.94-5.06,3.5-.18,5.67,2.87,7.96,4.98,4.98,4.96,12.06,7.38,19,7.4,12.07.4,23.92-3.69,36-2.26,13.01,1.2,26.09,7.37,33.56,18.39,8.26,11.79,8.69,27.89,2.94,40.84,4.78,7.15,9.8,14.37,12.38,22.66,1.36,3.91,1.11,8.88-2.28,11.69-2.66,2.58-8.29,2.42-9.29-1.71-2.5-7.56-4.13-15.42-7.53-22.67-10.35,10.95-26.04,15.27-40.75,14.08-14.83-.79-29.69-6.42-40.22-17.1C17.29,71.91,11.36,54.24,10.55,36.99c-.17-8.02-.22-16.15,1.54-24.01m7.76,6.92a89.23,89.23,0,0,0,1.57,30.99c2.87,12.12,9.41,23.67,19.48,31.22,11.31,8.51,26.06,11.63,40,10.15a38.321,38.321,0,0,0,24.66-12.51A40.954,40.954,0,0,0,89.31,68.7c-10.87-4.46-22.92-5.3-33.48-10.56-5.76-2.9-11.09-7.83-12.46-14.35-.27-1.72,1.11-2.76,2.78-2.3,3.05,2.71,5.52,6.12,9.18,8.09,9.5,5.82,20.97,5.82,31.44,8.7,8.71,2.18,17.18,5.69,24.21,11.36,2.67-9.01,2.04-19.25-3.18-27.25-5.58-8.81-15.61-13.96-25.75-15.33-10.75-1.72-21.37,1.6-32.08,2.04A42.516,42.516,0,0,1,19.85,19.9Z"/><path d="M268.75,26.58c.86-2.86,5.43-2.84,6.43-.06,2.62,6.91,4.41,14.11,6.94,21.05,7.24-.46,14.53-.45,21.78-.21,3.08.09,4.15,4.51,1.78,6.28-5.66,4.51-11.76,8.45-17.6,12.73C290.3,73.26,293,80,294.89,86.98c1.17,3.28-2.99,6.02-5.6,3.79-5.92-3.97-11.5-8.44-17.33-12.54-5.53,4-10.99,8.11-16.54,12.09-1.6,1.34-4.4,1.89-5.77-.06-1.27-1.63-.44-3.77.04-5.54,2.05-6.12,4.14-12.24,6.13-18.39-5.15-3.59-10.22-7.28-15.39-10.85-1.47-1.14-3.4-2.33-3.44-4.42a3.575,3.575,0,0,1,3.96-3.78c6.96-.06,13.94-.23,20.89.31C264.31,40.65,266.16,33.48,268.75,26.58Z"/><path d="M471.92,36.93c3.96-4.12,8.33-8.42,14.12-9.65,11.36-2.57,23.03,10.37,18.47,21.36-3.27,8.07-11.01,12.91-16.52,19.31a24.263,24.263,0,0,0-.03-8.99c3.65-4.04,8.48-7.41,10.36-12.73,2.31-6.53-4.68-13.98-11.34-12.24-5.52,1.4-8.9,6.37-12.88,10.04-3.85,3.81-8.84,8.1-8.1,14.11.49,4.71,4.96,7.51,9.18,8.51-1.58,1.88-2.78,4.46-5.22,5.33-7.09-2.78-12.5-10.86-10.43-18.58C461.21,46.4,467.18,41.87,471.92,36.93Z"/><path d="M858.52,27.74c2.92.25,6.69-.93,8.83,1.74,7.28,7.79,14.3,15.84,21.73,23.5,5.99.21,12.04-.41,18,.42,3.47.62,7.62,2.66,7.98,6.61-.19,3.75-3.91,5.76-7.13,6.53-6.19,1.19-12.54-.19-18.74.75-8.04,7.52-14.89,16.31-22.67,24.13-2.04,1.85-5.09,1.07-7.54.79-1.1-1.5.3-3.07.72-4.52q4.725-10.35,9.4-20.73c-4.77-.57-9.53-1.12-14.3-1.62-2.05,3.5-3.6,7.3-6,10.57-1.66,1.58-6.15,1.38-5.53-1.81-.01-9.68-.14-19.37.06-29.05-.02-2.3,3.13-1.49,4.6-1.49,3.26,3.01,4.53,7.6,6.97,11.27,4.74-.6,9.5-1.11,14.25-1.68-3.11-6.66-6.04-13.4-9.16-20.05A15.238,15.238,0,0,1,858.52,27.74Z"/><path d="M650.23,31.2c14.57-.51,29.18-.01,43.76-.23,3.13.11,6.72-.4,9.36,1.7,2.66,1.83,3.19,5.29,3.17,8.29-.01,12.36-.05,24.72.01,37.08-.01,3.06-.12,6.62-2.55,8.84-2.42,2.18-5.85,2.35-8.93,2.39q-20.01-.06-40.03,0c-3.09-.09-6.56-.16-8.96-2.39-2.5-2.24-2.6-5.85-2.59-8.96.09-12.64-.04-25.28.05-37.91-.26-4.07,2.5-8.29,6.71-8.81m.91,14.81c-2.05.77-1.85,3.21-1.91,4.98.08,9.69-.08,19.39.07,29.07a3.189,3.189,0,0,0,3.77,3.41c14.96,0,29.93.15,44.88-.07,3.19-.18,3.03-4.06,3.07-6.38-.18-9.34.27-18.71-.22-28.04-.04-2.44-2.58-3.66-4.74-3.46-13.37-.07-26.75.04-40.12-.05A14.048,14.048,0,0,0,651.14,46.01Z"/><path d="M1045.28,37.95a6.449,6.449,0,0,1,5.75-5.57,114.336,114.336,0,0,1,12-.08c4.29.15,6.66,5.03,10.97,5.13,9.67.23,19.35-.05,29.03.08,2.44.02,5.1.83,6.58,2.91,1.74,2.4,1.47,5.53,1.77,8.33q-33.18.03-66.36.01C1045.03,45.16,1044.74,41.53,1045.28,37.95Z"/><path d="M474.46,47.62c6.9,2.6,12.42,9.82,11.24,17.42-.95,6.65-6.06,11.55-10.64,16.02-4.76,4.26-8.96,9.82-15.48,11.41-11.48,3.15-23.74-10.01-19.12-21.21,3.29-8.13,11.01-13.11,16.61-19.53a23.118,23.118,0,0,0-.02,9.3c-3.74,4.25-9.08,7.62-10.6,13.37-1.7,6.7,5.78,13.64,12.33,11.27,6-2.1,9.59-7.72,14.07-11.87,3.72-3.42,7.6-8.33,5.75-13.7-1.19-3.95-5.09-5.92-8.83-6.8C471.27,51.35,472.82,49.44,474.46,47.62Z"/><path d="M666.81,51.48c1.96.06,3.94.1,5.91.14,0,1.85.01,3.69.01,5.54l-5.91.09C666.8,55.33,666.79,53.4,666.81,51.48Z"/><path d="M677.32,56.84a35.937,35.937,0,0,1,.19-5.39c1.88.03,3.78.07,5.69.12-.01,1.91-.01,3.81-.02,5.71C681.23,57.17,679.18,57.5,677.32,56.84Z"/><path d="M687.78,51.49c1.76.01,3.53-.05,5.3.12,1.28,1.36.54,3.56.56,5.26-1.89.59-3.91.32-5.85.4C687.77,55.35,687.76,53.42,687.78,51.49Z"/><path d="M1045.01,53.24q33.12.03,66.24.01c-.01,7.91.02,15.82.01,23.73-.04,2.95-.45,6.37-2.96,8.3-2.07,1.65-4.84,1.47-7.31,1.51-16-.11-32,.03-48-.06-3.84.17-7.66-2.61-7.82-6.61C1044.74,71.17,1045.12,62.2,1045.01,53.24Z"/><path d="M656.31,67.68c.02-2,.09-4,.23-5.99,1.87.04,3.75.08,5.63.14.05,1.86.09,3.73.14,5.6C660.31,67.59,658.3,67.64,656.31,67.68Z"/><path d="M666.85,61.73c1.98.11,3.96.16,5.96.17-.18,1.81.28,3.81-.49,5.51-1.82.62-3.74.14-5.58.04C666.75,65.54,666.79,63.64,666.85,61.73Z"/><path d="M677.34,67.71a53.306,53.306,0,0,1,.25-6.06c1.84.07,3.68.14,5.54.23.07,1.84.13,3.68.2,5.52C681.33,67.57,679.33,67.65,677.34,67.71Z"/><path d="M687.87,61.75c1.96.08,3.94.12,5.92.12-.08,1.95-.14,3.9-.24,5.85-1.96-.09-3.91-.16-5.86-.28C687.73,65.54,687.79,63.64,687.87,61.75Z"/><path d="M656.6,71.92c1.85.06,3.72.14,5.59.23-.03,1.92-.04,3.83,0,5.75q-2.82.09-5.61.15A20.647,20.647,0,0,1,656.6,71.92Z"/><path d="M667.06,72.25c1.78-.22,3.82-.7,5.49.24.44,1.84.01,3.75-.12,5.61-1.88-.08-3.73-.15-5.59-.24A21.943,21.943,0,0,1,667.06,72.25Z"/><path d="M678.01,72.1c1.72-.12,3.46-.03,5.2,0q-.09,2.88-.03,5.76c-1.86.09-3.72.16-5.56.23C677.56,76.12,676.49,73.75,678.01,72.1Z"/><path d="M253.59,362.72a59.806,59.806,0,0,1,35.65,5.01,60.855,60.855,0,0,1,32.58,39.21,59.412,59.412,0,0,1-4.32,41.63,61.008,61.008,0,0,1-37.48,31.3,59.35,59.35,0,0,1-33.49-.22,61.146,61.146,0,0,1-39.82-38.33,59.417,59.417,0,0,1,.01-38.64c6.9-20.46,25.53-36.46,46.87-39.96m6.14,27.16c-2.06,6.42-4.15,12.83-6.09,19.29-7.51.24-15.02-.1-22.52.15a3.671,3.671,0,0,0-3.4,2.73c-.35,2.57,2.07,3.99,3.82,5.32,5.27,3.66,10.47,7.43,15.73,11.14-2.22,7.18-4.94,14.2-6.99,21.43-1.01,2.67,2.09,5.59,4.61,3.92,6.47-4.13,12.41-9.04,18.72-13.41q8.385,6.18,16.81,12.32c1.6,1.22,4.25,2.49,5.78.44,1.55-1.5.53-3.76.1-5.52-2.14-6.41-4.37-12.79-6.38-19.23,5.38-3.78,10.68-7.69,16.09-11.44,1.13-.94,2.57-1.73,3.14-3.16,1.07-2.01-.85-4.64-3.04-4.52-7.49-.25-15-.02-22.49-.08-2.24-6.7-4.22-13.47-6.48-20.16-.51-1.8-1.96-3.97-4.15-3.32C260.94,385.89,260.39,388.33,259.73,389.88Z"/><path d="M458.37,362.55a59.828,59.828,0,0,1,38.04,7,61.085,61.085,0,0,1,29.03,37.37,59.272,59.272,0,0,1-4.51,42.03,60.821,60.821,0,0,1-34.95,30.21,59.372,59.372,0,0,1-44.31-2.81,60.871,60.871,0,0,1-28.89-29.03,59.682,59.682,0,0,1,0-50.62c8.36-17.96,25.95-31.3,45.59-34.15m20.45,26.36c-7.25,2.34-11.77,8.82-17.14,13.77-4.57,4.29-9.08,9.74-8.97,16.36.06,6.85,5.37,12.44,11.2,15.33q2.355-2.6,4.57-5.31c-4.1-1.14-8.43-3.62-9.14-8.22-1.2-6.16,3.53-11.07,7.6-14.94,4.37-4,8.06-9.45,14.1-10.98,6.74-1.73,13.95,5.13,12.3,11.96-1.25,6.17-7.03,9.65-10.91,14.12a34.488,34.488,0,0,1,.42,8.12c5.41-6.34,13.08-11.12,16.16-19.16,4.64-11.5-8.56-25.02-20.19-21.05m-10.49,20.7c-1.48,1.75-2.94,3.5-4.38,5.29,4.46,1.01,8.91,4.2,9.29,9.1.52,5.95-4.12,10.4-8.02,14.18-4.17,3.81-7.64,8.92-13.28,10.63-6.84,2.28-14.65-4.8-12.92-11.82,1.37-6.1,6.96-9.67,10.88-14.07a47.071,47.071,0,0,1-.3-8.22c-5.7,6.6-13.88,11.65-16.58,20.35-2.75,9.08,4.79,18.37,13.42,20.42,6.47,1.27,12.64-2.54,16.98-7.01,4.65-5.02,10.45-9.1,13.9-15.13,2.06-3.51,3.14-7.8,1.96-11.79A19.53,19.53,0,0,0,468.33,409.61Z"/><path d="M660.57,362.77a59.8,59.8,0,0,1,35.1,4.57,61.111,61.111,0,0,1,31.93,34.81,59.257,59.257,0,0,1-2.57,45.84,60.688,60.688,0,0,1-32.86,30.24,59.371,59.371,0,0,1-38.59,1.36,61.174,61.174,0,0,1-37.39-32.73,59.46,59.46,0,0,1-3.03-41.63c6.2-21.55,25.29-38.7,47.41-42.46m-14.24,29.58c-4.47.22-7.85,4.36-7.74,8.74-.24,12.63.02,25.27-.12,37.91.02,3.46-.06,7.39,2.39,10.15,2.25,2.54,5.93,2.73,9.09,2.84,13.34.04,26.67-.03,40,.03,3.37-.08,7.14.07,9.96-2.09,2.42-1.84,3.2-5.01,3.1-7.91q-.03-20,0-39.98c.09-2.91-.66-6.09-3.1-7.93-2.8-2.19-6.54-1.86-9.88-1.89C675.47,392.37,660.89,392.07,646.33,392.35Z"/><path d="M864.54,362.73a59.942,59.942,0,0,1,35.03,4.71,61.238,61.238,0,0,1,32.59,37.54,59.461,59.461,0,0,1-.57,35.88,60.925,60.925,0,0,1-36.08,37.48,59.345,59.345,0,0,1-46.11-1.76,60.862,60.862,0,0,1-29.17-28.85,59.756,59.756,0,0,1-2.67-44.89c6.86-20.56,25.54-36.64,46.98-40.11m-8.67,26.48c3.03,8.94,7.65,17.25,11.31,25.94-5.17.67-10.34,1.24-15.52,1.76-2.13-3.73-3.77-7.79-6.39-11.21-1.57-.82-4.94-1.11-4.94,1.42-.24,8.95.03,17.91-.12,26.87.11,1.61-.26,3.48.84,4.86,1.54.08,3.75.72,4.71-.95,2.28-3.42,3.96-7.2,6.11-10.71,5.09.66,10.2,1.16,15.3,1.82-3.57,8.34-7.69,16.45-11.11,24.85.21.32.64.97.85,1.3,2.55.14,5.8.77,7.56-1.61q8.64-9.39,17.26-18.82c1.74-1.84,3.26-3.99,5.42-5.38,6.4-1.08,13,.44,19.39-.84,3.23-.73,6.9-2.84,7.26-6.47-.42-3.63-4.02-5.6-7.22-6.37-6.42-1.42-13.04-.14-19.51-.86-8.18-7.74-15.24-16.68-23.17-24.7C861.78,387.92,858.5,388.97,855.87,389.21Z"/><path d="M1067.6,362.81a59.957,59.957,0,0,1,35.83,4.76,60.994,60.994,0,0,1,33.63,42.45c4.23,19.47-2.39,40.65-16.57,54.57a60.328,60.328,0,0,1-35.35,17.16,60.019,60.019,0,0,1-58.65-90.32,60.963,60.963,0,0,1,41.11-28.62m-22.82,35.94c-.9,3.67-.46,7.5-.53,11.24q33.96.015,67.91,0c-.3-2.78-.21-5.86-2.03-8.17-1.94-2.4-5.23-2.86-8.11-2.84-9.38-.03-18.76.11-28.13-.01-4.38.21-6.66-4.72-10.83-5.12-4.04-.22-8.1-.2-12.13-.03a6.45,6.45,0,0,0-6.15,4.93m-.53,16.5q0,11.88-.02,23.77c-.02,2.92.25,6.28,2.58,8.36,2.2,2,5.38,2.02,8.19,2.13q23.535-.03,47.06,0c2.74-.04,5.91-.27,7.84-2.51,1.99-2.16,2.04-5.27,2.12-8.03q-.03-11.865-.03-23.72Q1078.12,415.265,1044.25,415.25Z"/><path d="M1.97,371.95c.86-2.5,4.27-2.55,5.89-.79,4.19,3.75,8.88,7.21,14.54,8.29,15.1,3.62,30.31-2,45.51-.81,8.96.61,18.05,2.91,25.48,8.13,12.44,8.44,16.73,24.97,14.29,39.19a2.209,2.209,0,0,1-3.1,1.5,47.274,47.274,0,0,1-5.82-4.24c-6.52-5.1-14.57-7.88-22.69-9.07-9.8-1.61-20.05-1.2-29.4-4.93-4.89-1.86-8.94-5.26-12.83-8.65-.48.4-1.43,1.2-1.91,1.59a24.914,24.914,0,0,0,15.12,14.8c14.15,5.12,29.78,5.02,43.49,11.56,10.85,4.76,18.98,13.93,25.27,23.72,2.63,4.31,5.35,9.42,3.81,14.62-1.09,4.05-6.17,6.62-9.93,4.45-1.88-1.79-2.3-4.55-3.21-6.87a75.02,75.02,0,0,0-8.58-18.42,45.513,45.513,0,0,1-25.73,13.64c-18.99,3.02-39.83-2.35-53.48-16.31C6.83,431.52,1.32,414.78,0,398.38V384.55C.43,380.33.56,375.98,1.97,371.95Z"/><path d="M646.17,407.23c2.89-.75,5.91-.45,8.87-.5,12.67.1,25.34-.09,38,.08a4.052,4.052,0,0,1,4.65,4.11c.19,9.69-.04,19.39.1,29.09-.14,2.07.39,4.92-1.87,6.07a16.2,16.2,0,0,1-4.91.46c-14.01-.09-28.02-.02-42.03-.03-1.89.03-4.62-.09-4.81-2.52-.44-9.99,0-20.02-.21-30.02.1-2.34-.51-5.65,2.21-6.74m16.45,6.31c.04,1.81.08,3.63.07,5.45,1.81-.02,3.64-.04,5.46-.08.02-1.79.03-3.58.05-5.37q-2.805-.03-5.58,0m10.91-.02c0,1.81.03,3.63.07,5.45,1.75-.01,3.52-.03,5.29-.06.05-1.77.09-3.54.15-5.29-1.84-.05-3.68-.09-5.51-.1m10.6.2c.06,1.63.08,3.27.29,4.9,1.73.65,3.66.22,5.48.28-.07-1.85-.16-3.69-.32-5.53-1.83.1-3.64.21-5.45.35M652.1,424.25a25.81,25.81,0,0,0-.38,5.2c1.92.02,3.84.03,5.77.04-.13-1.86-.19-3.71-.18-5.56-1.74.08-3.49.1-5.21.32m10.58-.3c.02,1.84-.02,3.68-.09,5.52,1.91,0,3.82-.02,5.75-.04a23.517,23.517,0,0,0-.49-5.18c-1.72-.24-3.46-.23-5.17-.3m10.95.04c-.06,1.82-.11,3.64-.12,5.48,1.86-.02,3.75-.05,5.63-.08-.14-1.72-.17-3.44-.4-5.14a46.147,46.147,0,0,0-5.11-.26m10.85.41c-.23,1.65-.28,3.31-.38,4.98,2.18-.16,6.66,1.25,5.9-2.47.73-3.52-3.27-3.39-5.52-2.51M651.8,434.83c.01,1.76.03,3.53.07,5.31,1.81.04,3.62.08,5.45.11.02-1.82.08-3.64.18-5.45q-2.865-.015-5.7.03m10.88-.07c.01,1.8.01,3.61-.03,5.43,1.83,0,3.67,0,5.51-.01.02-1.8.05-3.59.07-5.38-1.86-.02-3.71-.04-5.55-.04m10.84.03c0,1.8.03,3.62.08,5.43,1.77-.02,3.55-.04,5.33-.08.02-1.78.03-3.56.05-5.33C677.15,434.79,675.33,434.78,673.52,434.79Z"/></g><g id="_ffcd00ff" data-name="#ffcd00ff"><path class="cls-1" d="M253.55,182.73a59.706,59.706,0,0,1,35.76,5.04A60.8,60.8,0,0,1,321.8,226.9a59.27,59.27,0,0,1-4.33,41.72,60.948,60.948,0,0,1-37.42,31.24,59.232,59.232,0,0,1-34.21-.43A61.034,61.034,0,0,1,205.42,257a59.331,59.331,0,0,1,3.59-40c8.13-17.72,25.26-31.08,44.54-34.27m6.8,25.5c-2.47,6.94-4.49,14.03-6.82,21.03-7.5.04-15.01-.11-22.51.04-3.23-.01-4.5,4.7-1.69,6.34,5.86,4.45,11.98,8.56,17.94,12.87-2.21,6.91-4.64,13.75-6.83,20.66a3.5,3.5,0,0,0,5.71,3.96c5.87-4.15,11.61-8.5,17.45-12.69,5.8,4.27,11.59,8.54,17.43,12.74,1.45,1.14,3.92,1.8,5.18.01,1.37-1.27.73-3.26.3-4.8-2.19-6.64-4.46-13.25-6.62-19.89,5.4-3.83,10.74-7.74,16.17-11.53,1.09-.89,2.5-1.61,3.04-3,1.22-2.09-.88-4.88-3.17-4.67-7.44-.15-14.88-.01-22.32-.04-2.47-7.21-4.39-14.61-7.12-21.72C265.32,204.72,260.99,205.34,260.35,208.23Z"/></g><g id="_0079ffff" data-name="#0079ffff"><path class="cls-2" d="M462.03,182.12a59.649,59.649,0,0,1,39.36,10.57,60.523,60.523,0,0,1,25.69,43.36,58.788,58.788,0,0,1-6.5,33.57,60.547,60.547,0,0,1-41.55,31.36,59.1,59.1,0,0,1-38.86-5.37,60.864,60.864,0,0,1-30.61-36.71,59.655,59.655,0,0,1,6.3-47.87,60.532,60.532,0,0,1,46.17-28.91m16.84,26.77c-7.05,2.23-11.51,8.45-16.69,13.29-4.49,4.23-9.07,9.34-9.45,15.81-.5,7.21,4.99,13.39,11.16,16.34a59.424,59.424,0,0,0,4.59-5.31c-4.4-1.05-8.91-4.04-9.24-8.96-.75-6.43,4.55-11.05,8.69-15.13,3.96-3.76,7.5-8.61,13.07-10.01,6.77-1.74,14.01,5.14,12.34,11.99-1.28,6.17-7.04,9.63-10.92,14.09a25.76,25.76,0,0,1,.36,8.17c5.44-6.33,13.1-11.14,16.23-19.17,4.65-11.5-8.5-25.02-20.14-21.11m-14.93,26.06c4.5.88,8.9,4.19,9.3,9.05.53,5.96-4.14,10.43-8.06,14.22-4.18,3.82-7.66,8.97-13.35,10.62-6.83,2.18-14.56-4.89-12.8-11.88,1.37-6.1,6.97-9.66,10.9-14.05a34.952,34.952,0,0,1-.3-8.24c-5.71,6.61-13.91,11.67-16.62,20.39-2.78,9.28,5.12,18.81,14.06,20.52,6.55.92,12.56-3.08,16.87-7.64,5.63-5.98,13.16-11.02,15.37-19.4,2.02-7.19-2.87-14.33-8.82-17.92C467.41,228.59,465.65,233.2,463.94,234.95Z"/></g><g id="_ff3d2eff" data-name="#ff3d2eff"><path class="cls-3" d="M660.58,182.77A59.672,59.672,0,0,1,697,187.98a61.036,61.036,0,0,1,30.86,34.92,59.189,59.189,0,0,1-2.76,44.94,60.7,60.7,0,0,1-32.95,30.4,59.334,59.334,0,0,1-39.23,1.14,61.192,61.192,0,0,1-37.69-34.71,59.5,59.5,0,0,1-1.65-40.81c6.58-20.92,25.36-37.41,47-41.09m-14.29,29.58c-4.45.25-7.81,4.38-7.71,8.74-.21,12.64.01,25.29-.1,37.94-.01,3.46-.06,7.37,2.39,10.13,2.26,2.56,5.95,2.72,9.12,2.84,13.35.02,26.69-.03,40.04.02,2.9-.05,5.97.02,8.65-1.3a8.368,8.368,0,0,0,4.3-7.64c.06-13.34-.03-26.69.04-40.03-.02-2.52-.01-5.28-1.63-7.37-1.81-2.68-5.26-3.54-8.31-3.44C677.48,212.33,661.88,212.11,646.29,212.35Z"/><path class="cls-3" d="M646.03,227.26a20.975,20.975,0,0,1,5.97-.54c13.35.07,26.71,0,40.06.03,1.63.1,3.7.03,4.81,1.49,1.13,1.68.83,3.8.91,5.72-.12,9.67.09,19.36-.09,29.03.15,2.51-2.48,3.88-4.69,3.52-15.3-.08-30.61.12-45.91-.09-2.41.23-3.29-2.39-3.09-4.33.02-10.4-.05-20.79.03-31.18a3.674,3.674,0,0,1,2-3.65m16.63,6.28c-.05,1.82-.02,3.65.06,5.48,1.8-.03,3.62-.06,5.44-.12.03-1.78.04-3.57.04-5.35-1.85-.03-3.7-.03-5.54-.01m10.83.01c.01,1.8.05,3.61.13,5.42,1.74,0,3.5-.02,5.26-.06.07-1.78.11-3.55.17-5.33-1.86-.01-3.72-.03-5.56-.03m10.67.15c.05,1.65.05,3.32.25,4.98a39.3,39.3,0,0,0,5.1.48,13.6,13.6,0,0,0,.05-5.75c-1.81.08-3.61.16-5.4.29m-32.02,10.54c-.58,1.67-.32,3.48-.38,5.22,1.9.02,3.81.02,5.74-.01-.08-1.82-.14-3.63-.21-5.45a38.374,38.374,0,0,0-5.15.24m10.56-.23c-.06,1.81-.09,3.62-.09,5.44q2.82.03,5.67,0c-.11-1.73.14-3.52-.39-5.2a34.693,34.693,0,0,0-5.19-.24m10.9.05c-.04,1.81-.07,3.62-.06,5.44,1.85-.02,3.7-.06,5.56-.13a25.67,25.67,0,0,0-.43-5.04c-1.62-.6-3.4-.19-5.07-.27m10.9.39a38.838,38.838,0,0,0-.36,4.95c1.94.02,3.88.01,5.83,0-.08-1.86-.21-3.72-.45-5.57-1.68.21-3.45-.02-5.02.62m-32.74,10.38c.05,1.78.08,3.56.11,5.35,1.81.03,3.63.05,5.46.04.04-1.81.09-3.61.16-5.42-1.92-.02-3.82-.01-5.73.03m10.94-.06c-.07,1.8-.06,3.6-.02,5.41q2.73.045,5.49,0c.03-1.8.05-3.59.06-5.38-1.85-.03-3.7-.04-5.53-.03m10.82.01c0,1.81.02,3.62.08,5.43,1.76,0,3.54-.01,5.32-.06q.045-2.67.06-5.34Q676.235,254.765,673.52,254.78Z"/></g><g id="_ff9600ff" data-name="#ff9600ff"><path class="cls-4" d="M864.61,182.72a59.833,59.833,0,0,1,38.96,6.77A61.1,61.1,0,0,1,932.98,228a59.6,59.6,0,0,1-3.56,38.44,61.04,61.04,0,0,1-36.18,32.7,59.281,59.281,0,0,1-44.53-2.89,60.869,60.869,0,0,1-29.36-30.43,59.793,59.793,0,0,1-2-42.34c6.7-20.88,25.57-37.29,47.26-40.76m-8.75,26.61c3.14,8.88,7.66,17.19,11.33,25.86-5.1.52-10.17,1.32-15.27,1.65-2.65-3.45-3.93-7.77-6.65-11.18-1.59-.73-4.93-1.07-4.96,1.45-.19,8.94.02,17.9-.09,26.85.1,1.62-.3,3.49.79,4.88,1.56.1,3.83.74,4.78-.97,2.24-3.41,3.94-7.15,6.02-10.66,5.11.63,10.24,1.13,15.36,1.8-3.62,8.4-7.74,16.6-11.21,25.06,1.57,2.07,4.74,1.17,6.96.86,7.9-7.83,15.09-16.39,22.76-24.46a3.943,3.943,0,0,1,3.2-1.43c5.07-.22,10.15.16,15.23-.12,3.43-.36,7.22-1.61,9.06-4.76,1.7-2.78-.71-6.07-3.28-7.23-7.27-3.72-15.89-.67-23.4-2.48-7.72-7.91-14.91-16.37-22.57-24.34C861.79,207.93,858.47,208.87,855.86,209.33Z"/></g><g id="_af52deff" data-name="#af52deff"><path class="cls-5" d="M1067.61,182.81a59.811,59.811,0,0,1,35.81,4.77,61.1,61.1,0,0,1,31.74,35.47,59.36,59.36,0,0,1-1.95,43.02,60.9,60.9,0,0,1-23.88,27.26,59.407,59.407,0,0,1-47.31,6.6,61.061,61.061,0,0,1-37.6-31.06,59.486,59.486,0,0,1-4.7-41.05c5.39-22.63,24.96-41.04,47.89-45.01m-22.85,35.98c-.91,3.66-.41,7.48-.51,11.21q33.945,0,67.88-.01c-.22-2.79-.18-5.87-2.01-8.19-1.7-2.05-4.5-2.78-7.06-2.79-9.72-.07-19.44.06-29.16-.03-4.41.26-6.65-4.77-10.84-5.16-4.05-.16-8.11-.13-12.15-.02a6.519,6.519,0,0,0-6.15,4.99m-.51,16.46c-.01,7.57.02,15.14-.02,22.72-.04,3.02-.05,6.39,2.01,8.86,2.14,2.47,5.65,2.61,8.7,2.68q23.52-.015,47.05.01c2.78,0,5.98-.28,7.93-2.54,1.96-2.16,2.05-5.24,2.1-7.99-.03-7.91-.02-15.83-.02-23.74Z"/></g><g id="_30cb40ff" data-name="#30cb40ff"><path class="cls-6" d="M1.97,191.91c.9-2.43,4.29-2.54,5.89-.77,3.98,3.62,8.43,6.95,13.79,8.13,15.98,4.13,32.15-2.32,48.26-.46,11,1,22.38,4.99,29.71,13.62,7.6,8.86,9.68,21.27,8.27,32.58a2.459,2.459,0,0,1-4,2.1c-4.65-3.46-9.12-7.32-14.63-9.39-13.75-6.11-29.55-3.11-43.38-8.83-4.65-1.8-8.22-5.37-12.21-8.23-.38.35-1.15,1.05-1.53,1.39,1.92,6.81,7.59,12,14.03,14.56,9.91,3.98,20.72,4.67,30.99,7.35,9.69,2.33,19.24,6.38,26.53,13.34a81.017,81.017,0,0,1,12.49,15.55c2.33,3.93,4.63,8.41,3.67,13.14-.67,3.93-4.78,6.94-8.75,5.92-2.76-.56-3.22-3.75-4.1-5.94a76.008,76.008,0,0,0-9.14-19.94c-9.98,10.9-25.29,15.52-39.77,14.31-15.07-.73-30.05-6.88-40.4-18.02C6.33,250.34,1.08,233.79,0,217.59V204.62C.46,200.36.56,195.98,1.97,191.91Z"/></g></g></g></svg>